<?xml version="1.0" encoding="UTF-8" standalone="no"?>
<svg
   xmlns:dc="http://purl.org/dc/elements/1.1/"
   xmlns:cc="http://creativecommons.org/ns#"
   xmlns:rdf="http://www.w3.org/1999/02/22-rdf-syntax-ns#"
   xmlns:svg="http://www.w3.org/2000/svg"
   xmlns="http://www.w3.org/2000/svg"
   viewBox="0 0 250.27499 216.75"
   height="216.75"
   width="250.27499"
   xml:space="preserve"
   version="1.1"
   id="svg2"><metadata
     id="metadata8"><rdf:RDF><cc:Work
         rdf:about=""><dc:format>image/svg+xml</dc:format><dc:type
           rdf:resource="http://purl.org/dc/dcmitype/StillImage" /></cc:Work></rdf:RDF></metadata><defs
     id="defs6" /><g
     transform="matrix(1.25,0,0,-1.25,0,216.75)"
     id="g10"><g
       transform="scale(0.1,0.1)"
       id="g12"><path
         id="path14"
         style="fill:#ffffff;fill-opacity:1;fill-rule:nonzero;stroke:none"
         d="m 1944.5,100 -1540.359,0 57.734,100 57.738,100 57.735,100 57.734,100 250.563,433.98 57.734,100 -57.734,100 -57.735,-100 L 519.613,500 461.879,400 404.145,300 346.406,200 288.672,100 230.938,0 2002.23,0 1944.5,100" /><path
         id="path16"
         style="fill:#ffffff;fill-opacity:1;fill-rule:nonzero;stroke:none"
         d="m 577.355,200 1078.475,0 -57.74,100 -57.73,100 -57.74,100 -308.3,533.99 -57.73,99.99 -57.74,100.01 -57.73,100 -57.729,-100 57.729,-100 57.73,-100 57.74,-100.002 250.56,-433.988 57.74,-100 57.73,-100 -847.53,0 -57.735,-100" /><path
         id="path18"
         style="fill:#ffffff;fill-opacity:1;fill-rule:nonzero;stroke:none"
         d="m 288.672,300 57.738,100 57.735,100 366.031,633.98 57.734,100 57.742,100.01 57.739,100 57.729,100 57.73,-100 57.74,-100 57.73,-100.01 57.74,-99.99 366.03,-633.99 57.74,-100 57.73,-100 57.73,-100 115.47,0 -57.73,100 -57.74,100 -57.73,100 -423.77,733.98 -57.73,100 -57.74,100.01 -57.73,100 -57.74,99.99 -57.73,100 -57.729,-100 -57.739,-99.99 -57.738,-100 -57.738,-100.01 -57.735,-100 L 288.676,500 230.941,400 173.203,300 115.469,200 57.7344,100 0,0 l 115.469,0 57.734,100 57.735,100 57.734,100" /><path
         id="path20"
         style="fill:#ffffff;fill-opacity:1;fill-rule:nonzero;stroke:none"
         d="M 1001.12,733.98 1136.2,500 866.023,500 1001.12,733.98 Z M 808.293,400 l 501.127,0 -57.75,100 -192.82,333.98 -57.73,100 -57.729,-100 L 750.559,500 692.82,400 l 115.473,0" /></g></g></svg>